# xmcd
#
# Track frame offsets:
#	150
#	15489
#	32295
#	50557
#	63553
#	79821
#	92433
#	109857
#	130455
#	147274
#	161706
#	176211
#	193212
#	209216
#	224598
#	240353
#	254499
#	268829
#	286137
#	303784
#	314577
#	332013
#
# Disc length: 4628 seconds
#
# Revision: 1
# Processed by: cddbd v1.5.2PL0 Copyright (c) Steve Scherf et al.
# Submitted via: audiograbber 1.81.02
#
DISCID=50121216
DTITLE=Mutti - album
DYEAR=1900
DGENRE=
TTITLE0=a
TTITLE1=b
TTITLE2=c
TTITLE3=d
TTITLE4=e
TTITLE5=f
TTITLE6=g
TTITLE7=h
TTITLE8=i
TTITLE9=j
TTITLE10=k
TTITLE11=l
TTITLE12=m
TTITLE13=n
TTITLE14=o
TTITLE15=p
TTITLE16=q
TTITLE17=r
TTITLE18=s
TTITLE19=t
TTITLE20=u
TTITLE21=v
EXTD=
EXTT0=
EXTT1=
EXTT2=
EXTT3=
EXTT4=
EXTT5=
EXTT6=
EXTT7=
EXTT8=
EXTT9=
EXTT10=
EXTT11=
EXTT12=
EXTT13=
EXTT14=
EXTT15=
EXTT16=
EXTT17=
EXTT18=
EXTT19=
EXTT20=
EXTT21=
PLAYORDER=
